<?xml version="1.0" encoding="UTF-8"?>
<svg xmlns="http://www.w3.org/2000/svg" xmlns:xlink="http://www.w3.org/1999/xlink" width="511.34pt" height="61.0258pt" viewBox="0 0 511.34 61.0258" version="1.1">
<g id="surface1">
<path style=" stroke:none;fill-rule:nonzero;fill:rgb(59.999084%,59.599304%,61.599731%);fill-opacity:1;" d="M 31.273438 60.71875 C 14.03125 60.71875 1.15625 47.953125 1.15625 31.007812 C 1.15625 13.96875 14.03125 1.203125 31.273438 1.203125 C 46.121094 1.203125 57.621094 11 59.925781 25.367188 L 44.109375 25.367188 C 42.167969 19.554688 37.269531 15.78125 31.308594 15.78125 C 23.289062 15.78125 17.402344 22.234375 17.402344 31.007812 C 17.402344 39.746094 23.289062 46.101562 31.308594 46.101562 C 37.59375 46.101562 42.539062 42.007812 44.125 35.710938 L 60.085938 35.710938 C 57.933594 50.605469 46.367188 60.71875 31.273438 60.71875 Z M 31.273438 60.71875 "/>
<path style=" stroke:none;fill-rule:nonzero;fill:rgb(83.499146%,40.79895%,16.899109%);fill-opacity:1;" d="M 89.671875 20.316406 L 83.460938 37.871094 L 95.933594 37.871094 Z M 99.742188 50.085938 L 79.660156 50.085938 L 76.523438 59.285156 L 59.796875 59.285156 L 82.054688 2.632812 L 97.308594 2.632812 L 120.050781 59.285156 L 102.863281 59.285156 Z M 99.742188 50.085938 "/>
<path style=" stroke:none;fill-rule:nonzero;fill:rgb(59.999084%,59.599304%,61.599731%);fill-opacity:1;" d="M 135.316406 20.316406 L 129.109375 37.871094 L 141.582031 37.871094 Z M 145.390625 50.085938 L 125.308594 50.085938 L 122.171875 59.285156 L 105.445312 59.285156 L 127.699219 2.632812 L 142.957031 2.632812 L 165.699219 59.285156 L 148.511719 59.285156 Z M 145.390625 50.085938 "/>
<path style=" stroke:none;fill-rule:nonzero;fill:rgb(59.999084%,59.599304%,61.599731%);fill-opacity:1;" d="M 186.761719 28.804688 L 193.890625 28.804688 C 198.253906 28.804688 200.765625 26.175781 200.765625 22.636719 C 200.765625 19.09375 198.253906 16.503906 193.890625 16.503906 L 186.761719 16.503906 Z M 192.421875 41.949219 L 186.761719 41.949219 L 186.761719 59.285156 L 171.15625 59.285156 L 171.15625 2.632812 L 195.710938 2.632812 C 207.921875 2.632812 216.777344 10.839844 216.777344 22.683594 C 216.777344 29.632812 213.378906 35.332031 207.785156 38.683594 L 219.035156 59.285156 L 201.613281 59.285156 Z M 192.421875 41.949219 "/>
<path style=" stroke:none;fill-rule:nonzero;fill:rgb(59.999084%,59.599304%,61.599731%);fill-opacity:1;" d="M 262.042969 30.914062 C 262.042969 22.507812 256.449219 16.925781 248.058594 16.925781 L 241.542969 16.925781 L 241.542969 44.992188 L 248.058594 44.992188 C 256.449219 44.992188 262.042969 39.269531 262.042969 30.914062 M 278.042969 30.914062 C 278.042969 47.445312 265.902344 59.285156 248.796875 59.285156 L 225.867188 59.285156 L 225.867188 2.632812 L 248.796875 2.632812 C 265.949219 2.632812 278.042969 14.359375 278.042969 30.914062 "/>
<path style=" stroke:none;fill-rule:nonzero;fill:rgb(0%,0%,0%);fill-opacity:1;" d="M 304.582031 19.058594 C 305.121094 19.058594 305.582031 18.96875 305.96875 18.789062 C 306.355469 18.609375 306.757812 18.320312 307.179688 17.925781 L 308.183594 18.953125 C 307.207031 20.035156 306.023438 20.578125 304.628906 20.578125 C 303.238281 20.578125 302.082031 20.128906 301.160156 19.230469 C 300.242188 18.335938 299.785156 17.199219 299.785156 15.828125 C 299.785156 14.457031 300.253906 13.316406 301.1875 12.402344 C 302.125 11.488281 303.308594 11.03125 304.734375 11.03125 C 306.164062 11.03125 307.355469 11.554688 308.316406 12.613281 L 307.328125 13.691406 C 306.886719 13.269531 306.472656 12.976562 306.082031 12.808594 C 305.6875 12.640625 305.230469 12.558594 304.703125 12.558594 C 303.769531 12.558594 302.988281 12.859375 302.355469 13.460938 C 301.722656 14.066406 301.40625 14.832031 301.40625 15.769531 C 301.40625 16.707031 301.71875 17.488281 302.347656 18.117188 C 302.976562 18.746094 303.722656 19.058594 304.582031 19.058594 "/>
<path style=" stroke:none;fill-rule:nonzero;fill:rgb(0%,0%,0%);fill-opacity:1;" d="M 316.558594 11.253906 L 316.558594 12.71875 L 311.636719 12.71875 L 311.636719 15.15625 L 316.054688 15.15625 L 316.054688 16.542969 L 311.636719 16.542969 L 311.636719 19.007812 L 316.714844 19.007812 L 316.714844 20.46875 L 310.082031 20.46875 L 310.082031 11.253906 Z M 316.558594 11.253906 "/>
<path style=" stroke:none;fill-rule:nonzero;fill:rgb(0%,0%,0%);fill-opacity:1;" d="M 325.617188 11.253906 L 327.171875 11.253906 L 327.171875 20.46875 L 325.484375 20.46875 L 320.261719 13.746094 L 320.261719 20.46875 L 318.707031 20.46875 L 318.707031 11.253906 L 320.261719 11.253906 L 325.617188 18.136719 Z M 325.617188 11.253906 "/>
<path style=" stroke:none;fill-rule:nonzero;fill:rgb(0%,0%,0%);fill-opacity:1;" d="M 333.210938 12.675781 L 333.210938 20.46875 L 331.65625 20.46875 L 331.65625 12.675781 L 328.859375 12.675781 L 328.859375 11.253906 L 336.007812 11.253906 L 336.007812 12.675781 Z M 333.210938 12.675781 "/>
<path style=" stroke:none;fill-rule:nonzero;fill:rgb(0%,0%,0%);fill-opacity:1;" d="M 342.980469 15.550781 C 343.296875 15.28125 343.457031 14.84375 343.457031 14.238281 C 343.457031 13.636719 343.292969 13.222656 342.96875 13 C 342.644531 12.777344 342.0625 12.664062 341.230469 12.664062 L 339.25 12.664062 L 339.25 15.960938 L 341.1875 15.960938 C 342.066406 15.960938 342.664062 15.824219 342.980469 15.550781 M 345.050781 14.246094 C 345.050781 15.765625 344.390625 16.726562 343.0625 17.121094 L 345.472656 20.46875 L 343.496094 20.46875 L 341.292969 17.371094 L 339.25 17.371094 L 339.25 20.46875 L 337.695312 20.46875 L 337.695312 11.253906 L 341.125 11.253906 C 342.53125 11.253906 343.535156 11.488281 344.144531 11.964844 C 344.75 12.441406 345.050781 13.199219 345.050781 14.246094 "/>
<path style=" stroke:none;fill-rule:nonzero;fill:rgb(0%,0%,0%);fill-opacity:1;" d="M 353.867188 13.429688 C 353.238281 12.777344 352.46875 12.453125 351.554688 12.453125 C 350.636719 12.453125 349.867188 12.777344 349.238281 13.429688 C 348.609375 14.082031 348.296875 14.867188 348.296875 15.796875 C 348.296875 16.722656 348.609375 17.511719 349.238281 18.164062 C 349.867188 18.8125 350.636719 19.136719 351.554688 19.136719 C 352.46875 19.136719 353.238281 18.8125 353.867188 18.164062 C 354.496094 17.511719 354.808594 16.722656 354.808594 15.796875 C 354.808594 14.867188 354.496094 14.082031 353.867188 13.429688 M 355.007812 19.199219 C 354.078125 20.109375 352.925781 20.5625 351.554688 20.5625 C 350.179688 20.5625 349.03125 20.109375 348.097656 19.199219 C 347.167969 18.289062 346.699219 17.152344 346.699219 15.796875 C 346.699219 14.4375 347.167969 13.304688 348.097656 12.394531 C 349.03125 11.484375 350.179688 11.027344 351.554688 11.027344 C 352.925781 11.027344 354.078125 11.484375 355.007812 12.394531 C 355.941406 13.304688 356.40625 14.4375 356.40625 15.796875 C 356.40625 17.152344 355.941406 18.289062 355.007812 19.199219 "/>
<path style=" stroke:none;fill-rule:nonzero;fill:rgb(0%,0%,0%);fill-opacity:1;" d="M 368.722656 15.855469 C 368.722656 13.746094 367.511719 12.691406 365.09375 12.691406 L 363.539062 12.691406 L 363.539062 19.007812 L 365.265625 19.007812 C 366.382812 19.007812 367.238281 18.742188 367.832031 18.210938 C 368.425781 17.675781 368.722656 16.894531 368.722656 15.855469 M 368.960938 12.460938 C 369.847656 13.265625 370.289062 14.382812 370.289062 15.816406 C 370.289062 17.25 369.859375 18.382812 368.996094 19.21875 C 368.136719 20.054688 366.820312 20.46875 365.042969 20.46875 L 361.984375 20.46875 L 361.984375 11.253906 L 365.148438 11.253906 C 366.800781 11.253906 368.070312 11.65625 368.960938 12.460938 "/>
<path style=" stroke:none;fill-rule:nonzero;fill:rgb(0%,0%,0%);fill-opacity:1;" d="M 378.769531 11.253906 L 378.769531 12.71875 L 373.851562 12.71875 L 373.851562 15.15625 L 378.269531 15.15625 L 378.269531 16.542969 L 373.851562 16.542969 L 373.851562 19.007812 L 378.929688 19.007812 L 378.929688 20.46875 L 372.292969 20.46875 L 372.292969 11.253906 Z M 378.769531 11.253906 "/>
<path style=" stroke:none;fill-rule:nonzero;fill:rgb(0%,0%,0%);fill-opacity:1;" d="M 389.820312 16.9375 L 388.144531 13.140625 L 386.46875 16.9375 Z M 385.839844 18.375 L 384.914062 20.46875 L 383.253906 20.46875 L 387.316406 11.253906 L 388.976562 11.253906 L 393.039062 20.46875 L 391.375 20.46875 L 390.453125 18.375 Z M 385.839844 18.375 "/>
<path style=" stroke:none;fill-rule:nonzero;fill:rgb(0%,0%,0%);fill-opacity:1;" d="M 401.054688 15.855469 C 401.054688 13.746094 399.847656 12.691406 397.429688 12.691406 L 395.871094 12.691406 L 395.871094 19.007812 L 397.601562 19.007812 C 398.714844 19.007812 399.570312 18.742188 400.164062 18.210938 C 400.757812 17.675781 401.054688 16.894531 401.054688 15.855469 M 401.292969 12.460938 C 402.179688 13.265625 402.625 14.382812 402.625 15.816406 C 402.625 17.25 402.191406 18.382812 401.332031 19.21875 C 400.46875 20.054688 399.152344 20.46875 397.375 20.46875 L 394.316406 20.46875 L 394.316406 11.253906 L 397.480469 11.253906 C 399.132812 11.253906 400.402344 11.65625 401.292969 12.460938 "/>
<path style=" stroke:none;fill-rule:nonzero;fill:rgb(0%,0%,0%);fill-opacity:1;" d="M 406.183594 20.46875 L 404.628906 20.46875 L 404.628906 11.253906 L 407.054688 11.253906 L 409.835938 17.042969 L 412.621094 11.253906 L 415.03125 11.253906 L 415.03125 20.46875 L 413.476562 20.46875 L 413.476562 13.269531 L 410.257812 19.667969 L 409.386719 19.667969 L 406.183594 13.269531 Z M 406.183594 20.46875 "/>
<path style=" stroke:none;fill-rule:nonzero;fill:rgb(0%,0%,0%);fill-opacity:1;" d="M 417.589844 11.253906 L 419.144531 11.253906 L 419.144531 20.472656 L 417.589844 20.472656 Z M 417.589844 11.253906 "/>
<path style=" stroke:none;fill-rule:nonzero;fill:rgb(0%,0%,0%);fill-opacity:1;" d="M 428.613281 11.253906 L 430.171875 11.253906 L 430.171875 20.46875 L 428.480469 20.46875 L 423.257812 13.746094 L 423.257812 20.46875 L 421.703125 20.46875 L 421.703125 11.253906 L 423.257812 11.253906 L 428.613281 18.136719 Z M 428.613281 11.253906 "/>
<path style=" stroke:none;fill-rule:nonzero;fill:rgb(0%,0%,0%);fill-opacity:1;" d="M 432.726562 11.253906 L 434.285156 11.253906 L 434.285156 20.472656 L 432.726562 20.472656 Z M 432.726562 11.253906 "/>
<path style=" stroke:none;fill-rule:nonzero;fill:rgb(0%,0%,0%);fill-opacity:1;" d="M 439.632812 12.464844 C 439.179688 12.464844 438.808594 12.558594 438.515625 12.742188 C 438.226562 12.925781 438.082031 13.207031 438.082031 13.582031 C 438.082031 13.953125 438.226562 14.238281 438.515625 14.4375 C 438.808594 14.636719 439.425781 14.847656 440.371094 15.078125 C 441.3125 15.304688 442.027344 15.625 442.503906 16.039062 C 442.984375 16.453125 443.222656 17.0625 443.222656 17.867188 C 443.222656 18.671875 442.921875 19.324219 442.3125 19.824219 C 441.707031 20.324219 440.914062 20.574219 439.925781 20.574219 C 438.484375 20.574219 437.207031 20.078125 436.089844 19.085938 L 437.066406 17.914062 C 437.996094 18.722656 438.964844 19.125 439.96875 19.125 C 440.46875 19.125 440.863281 19.019531 441.160156 18.800781 C 441.453125 18.585938 441.601562 18.300781 441.601562 17.945312 C 441.601562 17.589844 441.464844 17.3125 441.1875 17.113281 C 440.910156 16.917969 440.433594 16.738281 439.757812 16.574219 C 439.078125 16.410156 438.566406 16.261719 438.214844 16.125 C 437.859375 15.988281 437.550781 15.8125 437.277344 15.589844 C 436.730469 15.179688 436.460938 14.546875 436.460938 13.691406 C 436.460938 12.839844 436.769531 12.183594 437.390625 11.722656 C 438.007812 11.257812 438.777344 11.03125 439.691406 11.03125 C 440.277344 11.03125 440.863281 11.125 441.441406 11.320312 C 442.023438 11.511719 442.527344 11.785156 442.945312 12.136719 L 442.117188 13.3125 C 441.84375 13.066406 441.476562 12.863281 441.007812 12.703125 C 440.542969 12.546875 440.082031 12.464844 439.632812 12.464844 "/>
<path style=" stroke:none;fill-rule:nonzero;fill:rgb(0%,0%,0%);fill-opacity:1;" d="M 448.632812 12.675781 L 448.632812 20.46875 L 447.074219 20.46875 L 447.074219 12.675781 L 444.277344 12.675781 L 444.277344 11.253906 L 451.425781 11.253906 L 451.425781 12.675781 Z M 448.632812 12.675781 "/>
<path style=" stroke:none;fill-rule:nonzero;fill:rgb(0%,0%,0%);fill-opacity:1;" d="M 458.402344 15.550781 C 458.71875 15.28125 458.878906 14.84375 458.878906 14.238281 C 458.878906 13.636719 458.714844 13.222656 458.390625 13 C 458.0625 12.777344 457.484375 12.664062 456.648438 12.664062 L 454.671875 12.664062 L 454.671875 15.960938 L 456.609375 15.960938 C 457.488281 15.960938 458.085938 15.824219 458.402344 15.550781 M 460.472656 14.246094 C 460.472656 15.765625 459.808594 16.726562 458.480469 17.121094 L 460.894531 20.46875 L 458.917969 20.46875 L 456.714844 17.371094 L 454.671875 17.371094 L 454.671875 20.46875 L 453.113281 20.46875 L 453.113281 11.253906 L 456.542969 11.253906 C 457.949219 11.253906 458.957031 11.488281 459.5625 11.964844 C 460.167969 12.441406 460.472656 13.199219 460.472656 14.246094 "/>
<path style=" stroke:none;fill-rule:nonzero;fill:rgb(0%,0%,0%);fill-opacity:1;" d="M 468 16.9375 L 466.328125 13.140625 L 464.652344 16.9375 Z M 464.019531 18.375 L 463.097656 20.46875 L 461.433594 20.46875 L 465.496094 11.253906 L 467.15625 11.253906 L 471.21875 20.46875 L 469.558594 20.46875 L 468.636719 18.375 Z M 464.019531 18.375 "/>
<path style=" stroke:none;fill-rule:nonzero;fill:rgb(0%,0%,0%);fill-opacity:1;" d="M 476.703125 19.058594 C 477.242188 19.058594 477.703125 18.96875 478.089844 18.789062 C 478.476562 18.609375 478.878906 18.320312 479.300781 17.925781 L 480.304688 18.953125 C 479.328125 20.035156 478.144531 20.578125 476.75 20.578125 C 475.359375 20.578125 474.203125 20.128906 473.28125 19.230469 C 472.363281 18.335938 471.90625 17.199219 471.90625 15.828125 C 471.90625 14.457031 472.375 13.316406 473.308594 12.402344 C 474.246094 11.488281 475.429688 11.03125 476.855469 11.03125 C 478.285156 11.03125 479.476562 11.554688 480.4375 12.613281 L 479.449219 13.691406 C 479.007812 13.269531 478.59375 12.976562 478.203125 12.808594 C 477.808594 12.640625 477.351562 12.558594 476.824219 12.558594 C 475.890625 12.558594 475.109375 12.859375 474.476562 13.460938 C 473.84375 14.066406 473.527344 14.832031 473.527344 15.769531 C 473.527344 16.707031 473.839844 17.488281 474.46875 18.117188 C 475.097656 18.746094 475.84375 19.058594 476.703125 19.058594 "/>
<path style=" stroke:none;fill-rule:nonzero;fill:rgb(0%,0%,0%);fill-opacity:1;" d="M 482.203125 11.253906 L 483.757812 11.253906 L 483.757812 20.472656 L 482.203125 20.472656 Z M 482.203125 11.253906 "/>
<path style=" stroke:none;fill-rule:nonzero;fill:rgb(0%,0%,0%);fill-opacity:1;" d="M 490.8125 10.488281 L 489.46875 10.488281 L 490.867188 8.578125 L 492.421875 9.222656 Z M 492.890625 13.429688 C 492.261719 12.777344 491.492188 12.453125 490.578125 12.453125 C 489.664062 12.453125 488.890625 12.777344 488.261719 13.429688 C 487.632812 14.078125 487.320312 14.867188 487.320312 15.796875 C 487.320312 16.722656 487.632812 17.511719 488.261719 18.164062 C 488.890625 18.8125 489.664062 19.140625 490.578125 19.140625 C 491.492188 19.140625 492.261719 18.8125 492.890625 18.164062 C 493.519531 17.511719 493.832031 16.722656 493.832031 15.796875 C 493.832031 14.867188 493.519531 14.078125 492.890625 13.429688 M 494.03125 19.199219 C 493.101562 20.109375 491.949219 20.5625 490.578125 20.5625 C 489.207031 20.5625 488.054688 20.109375 487.121094 19.199219 C 486.191406 18.289062 485.722656 17.15625 485.722656 15.796875 C 485.722656 14.4375 486.191406 13.304688 487.121094 12.394531 C 488.054688 11.484375 489.207031 11.03125 490.578125 11.03125 C 491.949219 11.03125 493.101562 11.484375 494.03125 12.394531 C 494.960938 13.304688 495.429688 14.4375 495.429688 15.796875 C 495.429688 17.15625 494.960938 18.289062 494.03125 19.199219 "/>
<path style=" stroke:none;fill-rule:nonzero;fill:rgb(0%,0%,0%);fill-opacity:1;" d="M 504.304688 11.253906 L 505.859375 11.253906 L 505.859375 20.46875 L 504.171875 20.46875 L 498.949219 13.746094 L 498.949219 20.46875 L 497.394531 20.46875 L 497.394531 11.253906 L 498.949219 11.253906 L 504.304688 18.136719 Z M 504.304688 11.253906 "/>
<path style=" stroke:none;fill-rule:nonzero;fill:rgb(0%,0%,0%);fill-opacity:1;" d="M 307.117188 31.679688 C 307.117188 29.570312 305.90625 28.515625 303.488281 28.515625 L 301.933594 28.515625 L 301.933594 34.832031 L 303.660156 34.832031 C 304.777344 34.832031 305.632812 34.566406 306.222656 34.03125 C 306.820312 33.5 307.117188 32.71875 307.117188 31.679688 M 307.351562 28.28125 C 308.242188 29.089844 308.683594 30.207031 308.683594 31.640625 C 308.683594 33.074219 308.253906 34.207031 307.390625 35.042969 C 306.53125 35.878906 305.210938 36.292969 303.4375 36.292969 L 300.378906 36.292969 L 300.378906 27.078125 L 303.542969 27.078125 C 305.195312 27.078125 306.464844 27.480469 307.351562 28.28125 "/>
<path style=" stroke:none;fill-rule:nonzero;fill:rgb(0%,0%,0%);fill-opacity:1;" d="M 317.164062 27.078125 L 317.164062 28.542969 L 312.246094 28.542969 L 312.246094 30.980469 L 316.664062 30.980469 L 316.664062 32.363281 L 312.246094 32.363281 L 312.246094 34.832031 L 317.320312 34.832031 L 317.320312 36.292969 L 310.6875 36.292969 L 310.6875 27.078125 Z M 317.164062 27.078125 "/>
<path style=" stroke:none;fill-rule:nonzero;fill:rgb(0%,0%,0%);fill-opacity:1;" d="M 327.421875 32.761719 L 325.75 28.964844 L 324.074219 32.761719 Z M 323.441406 34.195312 L 322.515625 36.292969 L 320.855469 36.292969 L 324.917969 27.078125 L 326.578125 27.078125 L 330.640625 36.292969 L 328.980469 36.292969 L 328.054688 34.195312 Z M 323.441406 34.195312 "/>
<path style=" stroke:none;fill-rule:nonzero;fill:rgb(0%,0%,0%);fill-opacity:1;" d="M 337.207031 31.375 C 337.523438 31.105469 337.683594 30.664062 337.683594 30.0625 C 337.683594 29.460938 337.519531 29.046875 337.195312 28.824219 C 336.867188 28.601562 336.289062 28.488281 335.453125 28.488281 L 333.476562 28.488281 L 333.476562 31.785156 L 335.414062 31.785156 C 336.292969 31.785156 336.890625 31.648438 337.207031 31.375 M 339.277344 30.070312 C 339.277344 31.589844 338.613281 32.550781 337.285156 32.945312 L 339.699219 36.292969 L 337.722656 36.292969 L 335.519531 33.195312 L 333.476562 33.195312 L 333.476562 36.292969 L 331.917969 36.292969 L 331.917969 27.078125 L 335.347656 27.078125 C 336.753906 27.078125 337.761719 27.3125 338.367188 27.789062 C 338.972656 28.265625 339.277344 29.023438 339.277344 30.070312 "/>
<path style=" stroke:none;fill-rule:nonzero;fill:rgb(0%,0%,0%);fill-opacity:1;" d="M 343.074219 34.855469 L 345.511719 34.855469 C 346.085938 34.855469 346.523438 34.765625 346.828125 34.585938 C 347.128906 34.40625 347.28125 34.066406 347.28125 33.566406 C 347.28125 32.746094 346.625 32.339844 345.316406 32.339844 L 343.074219 32.339844 Z M 343.074219 30.902344 L 345.054688 30.902344 C 346.179688 30.902344 346.742188 30.519531 346.742188 29.753906 C 346.742188 29.316406 346.605469 28.996094 346.332031 28.804688 C 346.058594 28.609375 345.636719 28.515625 345.066406 28.515625 L 343.074219 28.515625 Z M 345.554688 36.292969 L 341.519531 36.292969 L 341.519531 27.078125 L 345.105469 27.078125 C 345.730469 27.078125 346.269531 27.152344 346.71875 27.300781 C 347.171875 27.449219 347.511719 27.652344 347.730469 27.90625 C 348.152344 28.382812 348.363281 28.917969 348.363281 29.515625 C 348.363281 30.238281 348.132812 30.773438 347.675781 31.125 C 347.511719 31.25 347.394531 31.324219 347.335938 31.355469 C 347.273438 31.386719 347.164062 31.4375 347.003906 31.507812 C 347.574219 31.632812 348.03125 31.886719 348.371094 32.28125 C 348.707031 32.667969 348.875 33.15625 348.875 33.738281 C 348.875 34.378906 348.65625 34.945312 348.21875 35.4375 C 347.699219 36.007812 346.8125 36.292969 345.554688 36.292969 "/>
<path style=" stroke:none;fill-rule:nonzero;fill:rgb(0%,0%,0%);fill-opacity:1;" d="M 350.828125 27.078125 L 352.382812 27.078125 L 352.382812 36.292969 L 350.828125 36.292969 Z M 350.828125 27.078125 "/>
<path style=" stroke:none;fill-rule:nonzero;fill:rgb(0%,0%,0%);fill-opacity:1;" d="M 358.425781 28.5 L 358.425781 36.292969 L 356.867188 36.292969 L 356.867188 28.5 L 354.070312 28.5 L 354.070312 27.078125 L 361.21875 27.078125 L 361.21875 28.5 Z M 358.425781 28.5 "/>
<path style=" stroke:none;fill-rule:nonzero;fill:rgb(0%,0%,0%);fill-opacity:1;" d="M 368.195312 31.375 C 368.511719 31.105469 368.671875 30.664062 368.671875 30.0625 C 368.671875 29.460938 368.507812 29.046875 368.183594 28.824219 C 367.855469 28.601562 367.277344 28.488281 366.441406 28.488281 L 364.464844 28.488281 L 364.464844 31.785156 L 366.402344 31.785156 C 367.28125 31.785156 367.878906 31.648438 368.195312 31.375 M 370.265625 30.070312 C 370.265625 31.589844 369.601562 32.550781 368.273438 32.945312 L 370.6875 36.292969 L 368.710938 36.292969 L 366.507812 33.195312 L 364.464844 33.195312 L 364.464844 36.292969 L 362.90625 36.292969 L 362.90625 27.078125 L 366.335938 27.078125 C 367.742188 27.078125 368.75 27.3125 369.355469 27.789062 C 369.960938 28.265625 370.265625 29.023438 370.265625 30.070312 "/>
<path style=" stroke:none;fill-rule:nonzero;fill:rgb(0%,0%,0%);fill-opacity:1;" d="M 377.792969 32.761719 L 376.121094 28.964844 L 374.445312 32.761719 Z M 373.8125 34.195312 L 372.890625 36.292969 L 371.226562 36.292969 L 375.289062 27.078125 L 376.949219 27.078125 L 381.011719 36.292969 L 379.351562 36.292969 L 378.429688 34.195312 Z M 373.8125 34.195312 "/>
<path style=" stroke:none;fill-rule:nonzero;fill:rgb(0%,0%,0%);fill-opacity:1;" d="M 382.59375 28.476562 L 382.59375 27.078125 L 387.078125 27.078125 L 387.078125 33.15625 C 387.078125 34.230469 386.804688 35.035156 386.261719 35.570312 C 385.714844 36.105469 385.015625 36.371094 384.164062 36.371094 C 383.089844 36.371094 382.175781 35.996094 381.421875 35.238281 L 382.304688 34.011719 C 382.902344 34.585938 383.488281 34.871094 384.058594 34.871094 C 384.460938 34.871094 384.808594 34.734375 385.09375 34.460938 C 385.378906 34.1875 385.523438 33.78125 385.523438 33.234375 L 385.523438 28.476562 Z M 382.59375 28.476562 "/>
<path style=" stroke:none;fill-rule:nonzero;fill:rgb(0%,0%,0%);fill-opacity:1;" d="M 396.03125 27.078125 L 396.03125 28.542969 L 391.113281 28.542969 L 391.113281 30.980469 L 395.53125 30.980469 L 395.53125 32.363281 L 391.113281 32.363281 L 391.113281 34.832031 L 396.191406 34.832031 L 396.191406 36.292969 L 389.554688 36.292969 L 389.554688 27.078125 Z M 396.03125 27.078125 "/>
<path style=" stroke:none;fill-rule:nonzero;fill:rgb(0%,0%,0%);fill-opacity:1;" d="M 400.96875 28.289062 C 400.515625 28.289062 400.144531 28.382812 399.855469 28.566406 C 399.566406 28.75 399.421875 29.03125 399.421875 29.40625 C 399.421875 29.777344 399.566406 30.0625 399.855469 30.261719 C 400.144531 30.460938 400.761719 30.671875 401.707031 30.902344 C 402.652344 31.128906 403.367188 31.449219 403.84375 31.863281 C 404.324219 32.277344 404.5625 32.886719 404.5625 33.6875 C 404.5625 34.496094 404.261719 35.148438 403.652344 35.648438 C 403.046875 36.148438 402.25 36.398438 401.265625 36.398438 C 399.824219 36.398438 398.546875 35.902344 397.429688 34.910156 L 398.40625 33.738281 C 399.335938 34.546875 400.304688 34.949219 401.304688 34.949219 C 401.808594 34.949219 402.203125 34.84375 402.5 34.625 C 402.792969 34.410156 402.941406 34.125 402.941406 33.769531 C 402.941406 33.414062 402.804688 33.136719 402.527344 32.9375 C 402.25 32.742188 401.773438 32.5625 401.09375 32.398438 C 400.417969 32.234375 399.902344 32.085938 399.550781 31.949219 C 399.199219 31.8125 398.886719 31.636719 398.617188 31.414062 C 398.070312 31.003906 397.796875 30.371094 397.796875 29.515625 C 397.796875 28.664062 398.109375 28.007812 398.726562 27.546875 C 399.347656 27.082031 400.113281 26.851562 401.027344 26.851562 C 401.617188 26.851562 402.203125 26.949219 402.78125 27.144531 C 403.363281 27.335938 403.863281 27.609375 404.285156 27.960938 L 403.457031 29.132812 C 403.183594 28.886719 402.8125 28.6875 402.347656 28.527344 C 401.882812 28.371094 401.421875 28.289062 400.96875 28.289062 "/>
<path style=" stroke:none;fill-rule:nonzero;fill:rgb(0%,0%,0%);fill-opacity:1;" d="M 412.859375 36.292969 L 411.277344 36.292969 L 411.277344 32.65625 L 407.847656 27.078125 L 409.546875 27.078125 L 412.066406 31.269531 L 414.585938 27.078125 L 416.285156 27.078125 L 412.859375 32.65625 Z M 412.859375 36.292969 "/>
<path style=" stroke:none;fill-rule:nonzero;fill:rgb(0%,0%,0%);fill-opacity:1;" d="M 426.097656 31.375 C 426.414062 31.105469 426.574219 30.664062 426.574219 30.0625 C 426.574219 29.460938 426.410156 29.046875 426.085938 28.824219 C 425.757812 28.601562 425.179688 28.488281 424.34375 28.488281 L 422.367188 28.488281 L 422.367188 31.785156 L 424.304688 31.785156 C 425.183594 31.785156 425.78125 31.648438 426.097656 31.375 M 428.167969 30.070312 C 428.167969 31.589844 427.503906 32.550781 426.175781 32.945312 L 428.589844 36.292969 L 426.613281 36.292969 L 424.410156 33.195312 L 422.367188 33.195312 L 422.367188 36.292969 L 420.808594 36.292969 L 420.808594 27.078125 L 424.238281 27.078125 C 425.644531 27.078125 426.652344 27.3125 427.257812 27.789062 C 427.863281 28.265625 428.167969 29.023438 428.167969 30.070312 "/>
<path style=" stroke:none;fill-rule:nonzero;fill:rgb(0%,0%,0%);fill-opacity:1;" d="M 436.882812 27.078125 L 436.882812 28.542969 L 431.964844 28.542969 L 431.964844 30.980469 L 436.382812 30.980469 L 436.382812 32.363281 L 431.964844 32.363281 L 431.964844 34.832031 L 437.042969 34.832031 L 437.042969 36.292969 L 430.410156 36.292969 L 430.410156 27.078125 Z M 436.882812 27.078125 "/>
<path style=" stroke:none;fill-rule:nonzero;fill:rgb(0%,0%,0%);fill-opacity:1;" d="M 441.824219 28.289062 C 441.371094 28.289062 441 28.382812 440.707031 28.566406 C 440.417969 28.75 440.273438 29.03125 440.273438 29.40625 C 440.273438 29.777344 440.417969 30.0625 440.707031 30.261719 C 441 30.460938 441.617188 30.671875 442.5625 30.902344 C 443.503906 31.128906 444.21875 31.449219 444.695312 31.863281 C 445.175781 32.277344 445.414062 32.886719 445.414062 33.6875 C 445.414062 34.496094 445.113281 35.148438 444.503906 35.648438 C 443.898438 36.148438 443.105469 36.398438 442.117188 36.398438 C 440.675781 36.398438 439.398438 35.902344 438.28125 34.910156 L 439.257812 33.738281 C 440.1875 34.546875 441.15625 34.949219 442.160156 34.949219 C 442.660156 34.949219 443.054688 34.84375 443.351562 34.625 C 443.644531 34.410156 443.792969 34.125 443.792969 33.769531 C 443.792969 33.414062 443.65625 33.136719 443.378906 32.9375 C 443.101562 32.742188 442.625 32.5625 441.949219 32.398438 C 441.269531 32.234375 440.757812 32.085938 440.40625 31.949219 C 440.050781 31.8125 439.742188 31.636719 439.46875 31.414062 C 438.921875 31.003906 438.652344 30.371094 438.652344 29.515625 C 438.652344 28.664062 438.960938 28.007812 439.582031 27.546875 C 440.199219 27.082031 440.96875 26.851562 441.882812 26.851562 C 442.46875 26.851562 443.054688 26.949219 443.632812 27.144531 C 444.214844 27.335938 444.71875 27.609375 445.136719 27.960938 L 444.308594 29.132812 C 444.035156 28.886719 443.667969 28.6875 443.199219 28.527344 C 442.734375 28.371094 442.273438 28.289062 441.824219 28.289062 "/>
<path style=" stroke:none;fill-rule:nonzero;fill:rgb(0%,0%,0%);fill-opacity:1;" d="M 453.914062 29.253906 C 453.285156 28.601562 452.515625 28.277344 451.601562 28.277344 C 450.683594 28.277344 449.914062 28.601562 449.285156 29.253906 C 448.65625 29.902344 448.34375 30.691406 448.34375 31.621094 C 448.34375 32.546875 448.65625 33.335938 449.285156 33.988281 C 449.914062 34.636719 450.683594 34.960938 451.601562 34.960938 C 452.515625 34.960938 453.285156 34.636719 453.914062 33.988281 C 454.542969 33.335938 454.855469 32.546875 454.855469 31.621094 C 454.855469 30.691406 454.542969 29.902344 453.914062 29.253906 M 455.054688 35.023438 C 454.125 35.933594 452.972656 36.386719 451.601562 36.386719 C 450.226562 36.386719 449.078125 35.933594 448.144531 35.023438 C 447.214844 34.113281 446.746094 32.976562 446.746094 31.621094 C 446.746094 30.261719 447.214844 29.128906 448.144531 28.21875 C 449.078125 27.308594 450.226562 26.851562 451.601562 26.851562 C 452.972656 26.851562 454.125 27.308594 455.054688 28.21875 C 455.988281 29.128906 456.453125 30.261719 456.453125 31.621094 C 456.453125 32.976562 455.988281 34.113281 455.054688 35.023438 "/>
<path style=" stroke:none;fill-rule:nonzero;fill:rgb(0%,0%,0%);fill-opacity:1;" d="M 458.417969 36.292969 L 458.417969 27.078125 L 459.972656 27.078125 L 459.972656 34.816406 L 464.179688 34.816406 L 464.179688 36.292969 Z M 458.417969 36.292969 "/>
<path style=" stroke:none;fill-rule:nonzero;fill:rgb(0%,0%,0%);fill-opacity:1;" d="M 467.726562 34.183594 C 468.148438 34.675781 468.71875 34.921875 469.441406 34.921875 C 470.160156 34.921875 470.734375 34.675781 471.15625 34.183594 C 471.578125 33.691406 471.789062 33.023438 471.789062 32.179688 L 471.789062 27.078125 L 473.34375 27.078125 L 473.34375 32.246094 C 473.34375 33.574219 472.980469 34.597656 472.25 35.3125 C 471.519531 36.027344 470.582031 36.386719 469.441406 36.386719 C 468.296875 36.386719 467.363281 36.027344 466.632812 35.3125 C 465.902344 34.597656 465.539062 33.574219 465.539062 32.246094 L 465.539062 27.078125 L 467.09375 27.078125 L 467.09375 32.179688 C 467.09375 33.023438 467.304688 33.691406 467.726562 34.183594 "/>
<path style=" stroke:none;fill-rule:nonzero;fill:rgb(0%,0%,0%);fill-opacity:1;" d="M 479.726562 34.882812 C 480.261719 34.882812 480.722656 34.792969 481.109375 34.613281 C 481.496094 34.433594 481.902344 34.144531 482.324219 33.75 L 483.324219 34.777344 C 482.351562 35.859375 481.164062 36.398438 479.773438 36.398438 C 478.378906 36.398438 477.222656 35.953125 476.304688 35.054688 C 475.386719 34.15625 474.925781 33.023438 474.925781 31.652344 C 474.925781 30.28125 475.394531 29.136719 476.328125 28.222656 C 477.265625 27.308594 478.449219 26.851562 479.878906 26.851562 C 481.304688 26.851562 482.5 27.378906 483.457031 28.433594 L 482.46875 29.515625 C 482.03125 29.09375 481.613281 28.800781 481.222656 28.632812 C 480.832031 28.464844 480.371094 28.382812 479.84375 28.382812 C 478.914062 28.382812 478.128906 28.683594 477.496094 29.285156 C 476.863281 29.886719 476.546875 30.65625 476.546875 31.59375 C 476.546875 32.527344 476.863281 33.3125 477.492188 33.941406 C 478.121094 34.570312 478.863281 34.882812 479.726562 34.882812 "/>
<path style=" stroke:none;fill-rule:nonzero;fill:rgb(0%,0%,0%);fill-opacity:1;" d="M 485.226562 27.078125 L 486.78125 27.078125 L 486.78125 36.292969 L 485.226562 36.292969 Z M 485.226562 27.078125 "/>
<path style=" stroke:none;fill-rule:nonzero;fill:rgb(0%,0%,0%);fill-opacity:1;" d="M 493.835938 26.3125 L 492.492188 26.3125 L 493.886719 24.402344 L 495.445312 25.046875 Z M 495.914062 29.253906 C 495.285156 28.601562 494.511719 28.277344 493.597656 28.277344 C 492.683594 28.277344 491.914062 28.601562 491.285156 29.253906 C 490.65625 29.902344 490.339844 30.691406 490.339844 31.621094 C 490.339844 32.546875 490.65625 33.335938 491.285156 33.988281 C 491.914062 34.636719 492.683594 34.960938 493.597656 34.960938 C 494.511719 34.960938 495.285156 34.636719 495.914062 33.988281 C 496.539062 33.335938 496.855469 32.546875 496.855469 31.621094 C 496.855469 30.691406 496.539062 29.902344 495.914062 29.253906 M 497.054688 35.019531 C 496.121094 35.933594 494.96875 36.386719 493.597656 36.386719 C 492.226562 36.386719 491.074219 35.933594 490.144531 35.019531 C 489.210938 34.113281 488.746094 32.976562 488.746094 31.621094 C 488.746094 30.261719 489.210938 29.128906 490.144531 28.21875 C 491.074219 27.308594 492.226562 26.851562 493.597656 26.851562 C 494.96875 26.851562 496.121094 27.308594 497.054688 28.21875 C 497.984375 29.128906 498.449219 30.261719 498.449219 31.621094 C 498.449219 32.976562 497.984375 34.113281 497.054688 35.019531 "/>
<path style=" stroke:none;fill-rule:nonzero;fill:rgb(0%,0%,0%);fill-opacity:1;" d="M 507.324219 27.078125 L 508.882812 27.078125 L 508.882812 36.292969 L 507.191406 36.292969 L 501.96875 29.570312 L 501.96875 36.292969 L 500.414062 36.292969 L 500.414062 27.078125 L 501.96875 27.078125 L 507.324219 33.960938 Z M 507.324219 27.078125 "/>
<path style=" stroke:none;fill-rule:nonzero;fill:rgb(0%,0%,0%);fill-opacity:1;" d="M 307.117188 47.503906 C 307.117188 45.394531 305.90625 44.339844 303.488281 44.339844 L 301.933594 44.339844 L 301.933594 50.65625 L 303.660156 50.65625 C 304.777344 50.65625 305.632812 50.390625 306.222656 49.855469 C 306.820312 49.324219 307.117188 48.539062 307.117188 47.503906 M 307.351562 44.105469 C 308.242188 44.910156 308.683594 46.03125 308.683594 47.464844 C 308.683594 48.898438 308.253906 50.03125 307.390625 50.867188 C 306.53125 51.699219 305.210938 52.117188 303.4375 52.117188 L 300.378906 52.117188 L 300.378906 42.898438 L 303.542969 42.898438 C 305.195312 42.898438 306.464844 43.304688 307.351562 44.105469 "/>
<path style=" stroke:none;fill-rule:nonzero;fill:rgb(0%,0%,0%);fill-opacity:1;" d="M 317.164062 42.902344 L 317.164062 44.363281 L 312.246094 44.363281 L 312.246094 46.804688 L 316.664062 46.804688 L 316.664062 48.1875 L 312.246094 48.1875 L 312.246094 50.65625 L 317.320312 50.65625 L 317.320312 52.117188 L 310.6875 52.117188 L 310.6875 42.902344 Z M 317.164062 42.902344 "/>
<path style=" stroke:none;fill-rule:nonzero;fill:rgb(0%,0%,0%);fill-opacity:1;" d="M 329.664062 47.503906 C 329.664062 45.394531 328.457031 44.339844 326.039062 44.339844 L 324.480469 44.339844 L 324.480469 50.65625 L 326.210938 50.65625 C 327.324219 50.65625 328.179688 50.390625 328.773438 49.855469 C 329.367188 49.324219 329.664062 48.539062 329.664062 47.503906 M 329.902344 44.105469 C 330.789062 44.910156 331.234375 46.03125 331.234375 47.464844 C 331.234375 48.898438 330.800781 50.03125 329.941406 50.867188 C 329.078125 51.699219 327.761719 52.117188 325.984375 52.117188 L 322.925781 52.117188 L 322.925781 42.898438 L 326.089844 42.898438 C 327.742188 42.898438 329.011719 43.304688 329.902344 44.105469 "/>
<path style=" stroke:none;fill-rule:nonzero;fill:rgb(0%,0%,0%);fill-opacity:1;" d="M 333.238281 42.902344 L 334.792969 42.902344 L 334.792969 52.117188 L 333.238281 52.117188 Z M 333.238281 42.902344 "/>
<path style=" stroke:none;fill-rule:nonzero;fill:rgb(0%,0%,0%);fill-opacity:1;" d="M 340.140625 44.113281 C 339.6875 44.113281 339.316406 44.207031 339.027344 44.390625 C 338.738281 44.574219 338.589844 44.855469 338.589844 45.230469 C 338.589844 45.601562 338.738281 45.886719 339.027344 46.085938 C 339.316406 46.285156 339.933594 46.496094 340.878906 46.726562 C 341.824219 46.953125 342.535156 47.273438 343.015625 47.6875 C 343.496094 48.101562 343.734375 48.710938 343.734375 49.515625 C 343.734375 50.320312 343.429688 50.96875 342.824219 51.472656 C 342.21875 51.972656 341.421875 52.222656 340.4375 52.222656 C 338.996094 52.222656 337.714844 51.726562 336.601562 50.734375 L 337.574219 49.558594 C 338.507812 50.371094 339.476562 50.773438 340.476562 50.773438 C 340.976562 50.773438 341.375 50.664062 341.671875 50.449219 C 341.964844 50.234375 342.113281 49.949219 342.113281 49.59375 C 342.113281 49.238281 341.972656 48.960938 341.695312 48.761719 C 341.417969 48.566406 340.941406 48.382812 340.265625 48.222656 C 339.589844 48.058594 339.074219 47.910156 338.722656 47.773438 C 338.371094 47.636719 338.058594 47.460938 337.785156 47.238281 C 337.242188 46.828125 336.96875 46.195312 336.96875 45.339844 C 336.96875 44.488281 337.28125 43.832031 337.898438 43.371094 C 338.519531 42.90625 339.285156 42.675781 340.199219 42.675781 C 340.789062 42.675781 341.371094 42.773438 341.953125 42.96875 C 342.535156 43.160156 343.035156 43.433594 343.457031 43.785156 L 342.625 44.957031 C 342.355469 44.710938 341.984375 44.511719 341.519531 44.351562 C 341.050781 44.195312 340.59375 44.113281 340.140625 44.113281 "/>
<path style=" stroke:none;fill-rule:nonzero;fill:rgb(0%,0%,0%);fill-opacity:1;" d="M 350.78125 47.507812 C 351.09375 47.179688 351.25 46.695312 351.25 46.058594 C 351.25 45.421875 351.050781 44.972656 350.65625 44.707031 C 350.261719 44.445312 349.640625 44.3125 348.796875 44.3125 L 347.214844 44.3125 L 347.214844 48.003906 L 349.023438 48.003906 C 349.882812 48.003906 350.46875 47.839844 350.78125 47.507812 M 351.882812 43.707031 C 352.523438 44.242188 352.84375 45.066406 352.84375 46.183594 C 352.84375 47.300781 352.519531 48.117188 351.863281 48.636719 C 351.207031 49.15625 350.203125 49.414062 348.847656 49.414062 L 347.214844 49.414062 L 347.214844 52.117188 L 345.660156 52.117188 L 345.660156 42.902344 L 348.824219 42.902344 C 350.222656 42.902344 351.242188 43.167969 351.882812 43.707031 "/>
<path style=" stroke:none;fill-rule:nonzero;fill:rgb(0%,0%,0%);fill-opacity:1;" d="M 356.75 50.007812 C 357.171875 50.5 357.742188 50.746094 358.464844 50.746094 C 359.183594 50.746094 359.753906 50.5 360.175781 50.007812 C 360.601562 49.515625 360.8125 48.847656 360.8125 48.003906 L 360.8125 42.902344 L 362.367188 42.902344 L 362.367188 48.070312 C 362.367188 49.398438 362 50.417969 361.269531 51.136719 C 360.542969 51.851562 359.605469 52.210938 358.464844 52.210938 C 357.320312 52.210938 356.382812 51.851562 355.65625 51.136719 C 354.925781 50.417969 354.558594 49.398438 354.558594 48.070312 L 354.558594 42.902344 L 356.117188 42.902344 L 356.117188 48.003906 C 356.117188 48.847656 356.328125 49.515625 356.75 50.007812 "/>
<path style=" stroke:none;fill-rule:nonzero;fill:rgb(0%,0%,0%);fill-opacity:1;" d="M 368.289062 44.324219 L 368.289062 52.117188 L 366.730469 52.117188 L 366.730469 44.324219 L 363.933594 44.324219 L 363.933594 42.902344 L 371.082031 42.902344 L 371.082031 44.324219 Z M 368.289062 44.324219 "/>
<path style=" stroke:none;fill-rule:nonzero;fill:rgb(0%,0%,0%);fill-opacity:1;" d="M 377.332031 48.585938 L 375.660156 44.785156 L 373.984375 48.585938 Z M 373.351562 50.019531 L 372.425781 52.117188 L 370.765625 52.117188 L 374.828125 42.902344 L 376.488281 42.902344 L 380.550781 52.117188 L 378.890625 52.117188 L 377.964844 50.019531 Z M 373.351562 50.019531 "/>
<path style=" stroke:none;fill-rule:nonzero;fill:rgb(0%,0%,0%);fill-opacity:1;" d="M 384.617188 44.113281 C 384.164062 44.113281 383.792969 44.207031 383.503906 44.390625 C 383.214844 44.574219 383.070312 44.855469 383.070312 45.230469 C 383.070312 45.601562 383.214844 45.886719 383.503906 46.085938 C 383.792969 46.285156 384.410156 46.496094 385.355469 46.726562 C 386.300781 46.953125 387.015625 47.273438 387.492188 47.6875 C 387.972656 48.101562 388.210938 48.710938 388.210938 49.515625 C 388.210938 50.320312 387.910156 50.96875 387.300781 51.472656 C 386.695312 51.972656 385.898438 52.222656 384.914062 52.222656 C 383.472656 52.222656 382.195312 51.726562 381.078125 50.734375 L 382.054688 49.558594 C 382.984375 50.371094 383.953125 50.773438 384.953125 50.773438 C 385.457031 50.773438 385.851562 50.664062 386.148438 50.449219 C 386.441406 50.234375 386.589844 49.949219 386.589844 49.59375 C 386.589844 49.238281 386.453125 48.960938 386.175781 48.761719 C 385.898438 48.566406 385.421875 48.382812 384.742188 48.222656 C 384.066406 48.058594 383.550781 47.910156 383.199219 47.773438 C 382.847656 47.636719 382.535156 47.460938 382.265625 47.238281 C 381.71875 46.828125 381.445312 46.195312 381.445312 45.339844 C 381.445312 44.488281 381.757812 43.832031 382.375 43.371094 C 382.996094 42.90625 383.761719 42.675781 384.675781 42.675781 C 385.265625 42.675781 385.851562 42.773438 386.429688 42.96875 C 387.011719 43.160156 387.511719 43.433594 387.933594 43.785156 L 387.101562 44.957031 C 386.832031 44.710938 386.460938 44.511719 385.996094 44.351562 C 385.53125 44.195312 385.070312 44.113281 384.617188 44.113281 "/>
<path style=" stroke:none;fill-rule:nonzero;fill:rgb(83.499146%,40.79895%,16.899109%);fill-opacity:1;" d="M 295.652344 59.292969 L 291.183594 59.292969 L 291.183594 2.539062 L 295.652344 2.539062 Z M 295.652344 59.292969 "/>
</g>
</svg>
